<svg width="10" height="15" viewBox="0 0 10 15" fill="none" xmlns="http://www.w3.org/2000/svg">
<path d="M4.464 14.6V12.952C3.52533 12.8773 2.74133 12.632 2.112 12.216C1.49333 11.7893 1.01333 11.288 0.672 10.712L1.76 9.832C2.016 10.3333 2.36267 10.76 2.8 11.112C3.248 11.4533 3.80267 11.672 4.464 11.768V8.248L3.776 8.088C2.816 7.87467 2.13867 7.53867 1.744 7.08C1.34933 6.62133 1.152 6.08267 1.152 5.464C1.152 4.952 1.28 4.48267 1.536 4.056C1.80267 3.61867 2.18133 3.256 2.672 2.968C3.17333 2.68 3.77067 2.504 4.464 2.44V0.839999H5.568V2.456C7.04 2.59467 8.16 3.30933 8.928 4.6L7.888 5.4C7.57867 4.86667 7.23733 4.46133 6.864 4.184C6.49067 3.896 6.05867 3.70933 5.568 3.624V7.208L6.384 7.384C7.36533 7.59733 8.048 7.928 8.432 8.376C8.82667 8.81333 9.024 9.35733 9.024 10.008C9.024 10.8293 8.70933 11.512 8.08 12.056C7.46133 12.5893 6.624 12.8933 5.568 12.968V14.6H4.464ZM4.16 6.888L4.464 6.952V3.592C3.77067 3.64533 3.25867 3.832 2.928 4.152C2.608 4.472 2.448 4.85067 2.448 5.288C2.448 5.65067 2.56 5.97067 2.784 6.248C3.01867 6.52533 3.47733 6.73867 4.16 6.888ZM6.176 8.632L5.568 8.488V11.8C6.24 11.7573 6.768 11.592 7.152 11.304C7.536 11.016 7.728 10.6213 7.728 10.12C7.728 9.78933 7.616 9.496 7.392 9.24C7.17867 8.97333 6.77333 8.77067 6.176 8.632Z" fill="white"/>
</svg>
